<?xml version="1.0" encoding="UTF-8" ?>
<!DOCTYPE svg PUBLIC "-//W3C//DTD SVG 1.1//EN" "http://www.w3.org/Graphics/SVG/1.1/DTD/svg11.dtd">
<svg width="831pt" height="466pt" viewBox="0 0 831 466" version="1.1" xmlns="http://www.w3.org/2000/svg">
<g id="#082841ff">
</g>
<g id="#63c0dfff">
<path fill="#63c0df" opacity="1.00" d=" M 100.99 111.94 C 101.77 110.58 103.72 111.27 105.00 111.04 C 140.68 111.16 176.35 111.00 212.03 111.12 C 214.43 110.65 214.90 113.46 215.96 114.98 C 234.78 148.34 254.32 181.31 272.96 214.77 C 253.12 249.05 233.47 283.45 213.79 317.83 C 198.61 318.18 183.41 317.83 168.22 318.02 C 168.35 312.29 168.38 306.56 168.24 300.83 C 180.07 300.51 191.90 300.92 203.73 300.74 C 218.08 275.47 232.66 250.34 247.04 225.10 C 249.15 221.52 251.32 217.97 253.08 214.21 C 236.45 185.66 220.08 156.96 203.71 128.27 C 172.91 128.33 142.10 128.23 111.29 128.31 C 95.27 156.56 79.03 184.69 62.85 212.84 C 62.26 213.86 61.96 215.16 62.81 216.16 C 79.02 244.35 95.20 272.55 111.40 300.74 C 123.18 300.70 134.96 300.77 146.74 300.69 C 146.74 306.48 146.75 312.27 146.79 318.06 C 131.65 317.75 116.51 318.19 101.37 317.91 C 81.62 283.32 61.50 248.93 42.03 214.19 C 61.99 180.29 81.18 145.93 100.99 111.94 Z" />
<path fill="#63c0df" opacity="1.00" d=" M 302.98 245.17 C 309.99 244.96 317.01 245.06 324.02 245.12 C 333.93 265.12 344.21 284.93 353.89 305.04 C 348.51 304.95 343.12 304.96 337.74 305.05 C 334.72 299.37 331.91 293.60 329.03 287.85 C 318.69 287.68 308.34 287.86 297.99 287.81 C 295.22 293.36 292.69 299.05 289.62 304.44 C 284.41 305.76 278.57 304.70 273.12 304.97 C 282.92 284.96 292.99 265.08 302.98 245.17 M 313.40 256.97 C 310.26 263.99 306.23 270.59 303.43 277.74 C 310.25 277.71 317.06 277.65 323.88 277.73 C 320.38 270.81 317.10 263.79 313.40 256.97 Z" />
<path fill="#63c0df" opacity="1.00" d=" M 501.12 245.10 C 506.06 245.06 511.00 245.03 515.95 245.13 C 516.11 265.07 515.94 285.01 515.97 304.95 C 511.01 304.97 506.04 304.99 501.08 304.94 C 501.08 284.99 501.02 265.05 501.12 245.10 Z" />
<path fill="#63c0df" opacity="1.00" d=" M 592.05 245.08 C 596.78 245.04 601.51 245.01 606.24 245.16 C 606.31 250.61 606.11 256.06 606.44 261.51 C 612.28 261.27 618.13 261.43 623.97 261.37 C 624.01 264.28 624.02 267.20 624.00 270.11 C 618.09 270.11 612.18 270.14 606.27 270.11 C 606.49 278.48 605.68 286.94 606.68 295.25 C 607.04 295.50 607.77 295.99 608.13 296.24 C 613.39 296.58 618.68 296.27 623.96 296.34 C 624.01 299.21 624.02 302.09 624.01 304.96 C 615.92 304.80 607.76 305.58 599.74 304.33 C 595.56 303.79 592.18 300.26 592.15 295.99 C 591.93 279.02 592.03 262.05 592.05 245.08 Z" />
<path fill="#63c0df" opacity="1.00" d=" M 635.10 245.08 C 639.71 244.91 644.34 244.86 648.95 245.15 C 649.03 248.06 649.02 250.98 648.99 253.90 C 644.34 254.07 639.69 254.11 635.05 253.86 C 635.06 250.93 635.07 248.00 635.10 245.08 Z" />
<path fill="#63c0df" opacity="1.00" d=" M 362.88 261.15 C 377.26 261.00 391.64 261.00 406.02 261.20 C 409.63 261.51 413.97 261.54 416.58 264.49 C 418.49 266.49 419.06 269.34 418.97 272.02 C 418.93 282.99 418.99 293.96 418.93 304.93 C 414.13 304.97 409.33 305.03 404.54 304.93 C 404.45 293.43 404.84 281.92 404.32 270.44 C 395.47 269.27 386.50 270.11 377.60 269.70 C 377.37 281.47 377.57 293.25 377.50 305.02 C 372.70 305.04 367.90 304.94 363.10 304.94 C 362.92 290.35 363.31 275.74 362.88 261.15 Z" />
<path fill="#63c0df" opacity="1.00" d=" M 435.56 261.07 C 447.70 261.06 459.84 261.07 471.98 261.07 C 475.98 261.25 480.30 261.03 483.90 263.09 C 486.94 264.86 488.15 268.57 488.01 271.92 C 488.06 282.94 487.97 293.96 488.00 304.97 C 474.32 305.02 460.65 305.02 446.98 304.98 C 442.10 304.83 435.82 304.76 433.19 299.79 C 431.34 295.30 432.03 290.23 432.30 285.51 C 432.76 280.19 438.40 277.84 443.08 277.77 C 453.24 277.28 463.42 277.63 473.59 277.50 C 473.56 275.21 473.49 272.93 473.41 270.64 C 471.97 270.28 470.51 269.86 469.03 269.87 C 457.90 269.88 446.77 269.73 435.65 269.77 C 435.62 266.87 435.59 263.97 435.56 261.07 M 447.43 286.41 C 446.05 288.88 446.29 291.81 446.72 294.49 C 447.15 296.33 449.54 296.22 451.03 296.31 C 458.53 296.33 466.03 296.28 473.53 296.32 C 473.57 292.98 473.57 289.64 473.52 286.30 C 464.82 286.23 456.12 286.33 447.43 286.41 Z" />
<path fill="#63c0df" opacity="1.00" d=" M 523.14 261.18 C 528.32 260.94 533.50 261.09 538.68 261.11 C 543.44 270.78 548.40 280.36 553.16 290.03 C 553.48 291.95 555.09 290.26 555.28 289.35 C 559.96 279.96 564.73 270.61 569.35 261.18 C 574.54 261.11 579.74 260.86 584.92 261.25 C 575.74 279.34 566.82 297.56 557.61 315.63 C 555.63 319.65 552.76 323.93 547.96 324.64 C 541.54 325.55 535.00 324.83 528.53 324.96 C 528.61 322.10 528.61 319.24 528.56 316.38 C 533.10 316.22 537.77 316.96 542.17 315.50 C 543.55 312.72 544.98 309.95 546.28 307.13 C 538.50 291.85 530.81 276.52 523.14 261.18 Z" />
<path fill="#63c0df" opacity="1.00" d=" M 634.88 261.15 C 639.56 261.00 644.25 261.03 648.93 261.14 C 649.21 275.73 648.94 290.33 649.07 304.93 C 644.41 305.01 639.75 304.95 635.10 304.95 C 634.92 290.35 635.31 275.74 634.88 261.15 Z" />
<path fill="#63c0df" opacity="1.00" d=" M 665.09 263.08 C 669.33 260.81 674.31 261.22 678.97 261.10 C 690.31 261.07 701.65 260.93 712.98 261.17 C 713.04 264.03 713.02 266.89 712.98 269.75 C 700.53 270.10 687.99 269.17 675.59 270.45 C 675.21 278.79 675.32 287.16 675.56 295.51 C 677.32 296.04 679.15 296.40 681.02 296.34 C 691.65 296.24 702.28 296.41 712.91 296.23 C 713.00 299.12 713.06 302.02 713.09 304.92 C 701.39 305.09 689.69 304.94 678.00 304.97 C 674.08 304.91 670.05 304.99 666.31 303.65 C 662.91 302.33 661.08 298.60 661.10 295.10 C 660.99 287.38 661.08 279.65 661.07 271.93 C 660.99 268.63 661.96 264.77 665.09 263.08 Z" />
<path fill="#63c0df" opacity="1.00" d=" M 725.74 267.46 C 727.03 262.60 732.60 261.42 736.95 261.25 C 750.44 260.90 763.95 261.05 777.45 261.13 C 777.43 264.01 777.42 266.89 777.43 269.77 C 766.62 269.75 755.80 269.82 744.99 269.86 C 743.18 269.90 741.42 270.23 739.66 270.54 C 739.49 272.87 739.44 275.26 740.44 277.43 C 750.25 277.83 760.08 277.28 769.89 277.74 C 774.50 277.89 779.79 280.02 780.71 285.08 C 781.20 289.75 781.55 294.69 780.17 299.24 C 778.23 304.06 772.50 304.82 767.95 304.87 C 753.67 305.12 739.39 304.91 725.10 304.96 C 725.08 302.08 725.09 299.20 725.09 296.31 C 737.05 296.33 749.02 296.27 760.99 296.34 C 762.83 296.38 764.64 295.98 766.42 295.50 C 766.53 292.77 766.57 290.05 766.59 287.32 C 765.12 286.78 763.64 286.17 762.06 286.25 C 753.71 286.19 745.36 286.43 737.02 286.10 C 732.94 285.83 728.00 284.94 726.09 280.82 C 724.55 276.58 724.81 271.81 725.74 267.46 Z" />
</g>
<g id="#fefffeff">
<path fill="#fefffe" opacity="1.00" d=" M 272.05 132.05 C 311.02 132.01 349.99 132.04 388.96 132.03 C 388.99 137.10 389.02 142.18 388.93 147.25 C 373.41 147.18 357.88 147.21 342.36 147.21 C 342.25 172.47 342.36 197.72 342.30 222.97 C 334.46 222.98 326.61 223.03 318.77 222.95 C 318.84 197.73 318.86 172.49 318.76 147.27 C 303.19 147.17 287.62 147.29 272.05 147.18 C 271.97 142.14 272.05 137.09 272.05 132.05 Z" />
<path fill="#fefffe" opacity="1.00" d=" M 407.44 157.65 C 416.58 156.59 425.79 157.23 434.97 157.06 C 444.03 157.20 453.11 156.71 462.15 157.47 C 466.84 157.89 471.92 159.15 475.05 162.93 C 477.36 165.72 478.03 169.45 478.01 172.98 C 477.96 184.33 477.99 195.69 477.98 207.05 C 477.93 211.00 477.21 215.34 474.13 218.13 C 469.88 222.15 463.67 222.58 458.13 222.93 C 444.40 223.08 430.68 222.93 416.95 222.99 C 411.14 222.86 405.02 222.91 399.72 220.19 C 395.31 217.91 392.98 212.91 393.07 208.07 C 392.98 196.38 393.00 184.68 393.06 172.99 C 393.03 169.27 393.82 165.33 396.36 162.47 C 399.16 159.36 403.44 158.26 407.44 157.65 M 415.01 173.93 C 414.94 185.19 414.80 196.46 415.11 207.72 C 415.45 208.13 416.14 208.94 416.48 209.35 C 421.57 210.52 426.82 209.84 431.98 210.01 C 438.64 209.91 445.30 210.23 451.95 209.86 C 454.06 209.88 456.36 208.47 456.07 206.08 C 455.98 194.82 456.22 183.54 455.91 172.28 C 455.52 171.86 454.75 171.02 454.37 170.60 C 450.26 169.88 446.08 170.18 441.95 170.12 C 434.27 170.18 426.58 169.94 418.91 170.23 C 416.90 170.29 414.75 171.67 415.01 173.93 Z" />
<path fill="#fefffe" opacity="1.00" d=" M 489.91 157.14 C 497.32 156.97 504.74 157.09 512.15 157.06 C 517.18 172.15 522.44 187.15 527.22 202.32 C 531.90 188.65 536.50 174.94 541.08 161.23 C 549.41 161.13 557.74 161.16 566.07 161.22 C 570.44 174.87 575.15 188.41 579.69 202.00 C 584.89 187.09 589.85 172.09 594.77 157.09 C 602.15 157.02 609.53 157.06 616.91 157.08 C 609.75 179.08 602.24 200.97 595.00 222.95 C 585.98 223.05 576.96 222.97 567.94 222.98 C 563.20 208.63 558.33 194.32 553.49 180.00 C 548.77 194.34 543.78 208.60 539.13 222.97 C 530.12 223.01 521.10 222.98 512.09 222.99 C 504.70 201.04 497.47 179.03 489.91 157.14 Z" />
<path fill="#fefffe" opacity="1.00" d=" M 636.24 160.17 C 641.63 157.22 648.00 157.19 653.99 157.06 C 667.95 157.13 681.91 156.87 695.87 157.18 C 701.36 157.53 707.61 158.10 711.56 162.43 C 714.54 165.46 714.96 169.94 715.00 173.97 C 714.97 180.92 715.00 187.86 714.97 194.81 C 694.01 194.92 673.05 194.93 652.10 194.81 C 652.02 199.09 651.69 203.39 652.10 207.66 C 653.15 209.89 655.90 209.80 657.98 209.94 C 676.06 209.91 694.13 209.94 712.20 209.92 C 712.28 214.27 712.25 218.62 712.23 222.98 C 691.47 222.96 670.71 223.05 649.95 222.93 C 643.98 222.56 636.96 222.10 632.94 217.04 C 629.68 213.10 630.01 207.73 630.04 202.95 C 630.01 192.59 629.98 182.23 630.09 171.88 C 630.14 167.31 632.09 162.47 636.24 160.17 M 652.66 171.54 C 651.36 174.77 652.10 178.35 652.06 181.73 C 665.70 181.77 679.35 181.81 693.00 181.71 C 692.92 178.56 693.45 175.32 692.71 172.24 C 691.77 170.06 689.04 170.28 687.09 170.13 C 677.73 170.09 668.37 170.17 659.01 170.09 C 656.83 170.10 654.40 170.01 652.66 171.54 Z" />
<path fill="#fefffe" opacity="1.00" d=" M 736.50 162.44 C 740.21 158.57 745.81 157.64 750.93 157.31 C 761.59 156.84 772.27 157.10 782.94 157.10 C 783.02 161.46 782.99 165.81 782.97 170.17 C 775.62 170.08 768.27 170.12 760.93 170.13 C 758.98 170.03 757.24 170.96 755.52 171.69 C 754.95 188.76 755.32 205.87 755.33 222.95 C 747.91 223.02 740.49 223.01 733.08 222.96 C 733.01 206.63 733.07 190.31 733.04 173.99 C 733.02 169.95 733.63 165.51 736.50 162.44 Z" />
</g>
</svg>
