<?xml version="1.0" standalone="no"?>
<!DOCTYPE svg PUBLIC "-//W3C//DTD SVG 20010904//EN"
 "http://www.w3.org/TR/2001/REC-SVG-20010904/DTD/svg10.dtd">
<svg version="1.0" xmlns="http://www.w3.org/2000/svg"
 width="260.000000pt" height="260.000000pt" viewBox="0 0 260.000000 260.000000"
 preserveAspectRatio="xMidYMid meet">
<metadata>
Created by potrace 1.14, written by Peter Selinger 2001-2017
</metadata>
<g transform="translate(0.000000,260.000000) scale(0.100000,-0.100000)"
fill="#000000" stroke="none">
<path d="M894 2122 c6 -10 3 -13 -10 -12 -44 5 -62 -2 -84 -32 -19 -27 -20
-30 -4 -18 18 14 18 14 4 -5 -8 -11 -23 -28 -32 -38 -10 -10 -16 -22 -13 -28
4 -5 1 -9 -5 -9 -6 0 -8 -4 -5 -10 3 -5 1 -10 -4 -10 -6 0 -11 -7 -11 -16 0
-8 -4 -12 -10 -9 -6 4 -7 -1 -3 -11 4 -10 2 -15 -4 -11 -5 3 -10 0 -11 -8 -1
-8 -3 -22 -4 -30 -1 -13 -11 -19 -29 -17 -4 1 -4 -8 -1 -20 3 -13 1 -19 -5
-15 -6 4 -14 0 -17 -9 -4 -10 -2 -13 7 -9 6 4 1 -3 -13 -15 -14 -12 -19 -19
-12 -15 19 10 14 -6 -9 -26 -11 -9 -20 -20 -21 -23 0 -23 -12 -45 -21 -39 -6
4 -8 0 -4 -10 3 -10 2 -17 -3 -17 -5 0 -15 -14 -24 -30 -9 -20 -10 -28 -3 -24
7 3 4 -1 -5 -9 -10 -8 -18 -19 -18 -25 0 -6 -5 -14 -12 -18 -7 -5 -8 -3 -3 6
5 8 4 11 -3 6 -6 -3 -9 -15 -7 -25 2 -11 -3 -22 -11 -25 -8 -3 -14 -12 -14
-21 0 -8 -4 -15 -10 -15 -5 0 -6 -7 -3 -17 4 -9 2 -14 -3 -10 -6 3 -16 -3 -23
-15 -7 -11 -8 -17 -2 -13 19 11 12 -10 -8 -25 -11 -7 -18 -17 -15 -22 3 -4 1
-8 -5 -8 -6 0 -7 -7 -4 -17 4 -9 2 -14 -3 -10 -6 3 -16 -3 -23 -15 -10 -16
-10 -19 1 -12 7 4 2 -4 -11 -18 -21 -22 -38 -83 -20 -72 4 2 13 -4 20 -13 10
-12 10 -14 2 -9 -7 4 -13 2 -13 -3 0 -10 14 -15 32 -12 5 0 7 -2 7 -7 -4 -24
2 -42 13 -36 6 4 8 3 4 -4 -3 -6 1 -17 9 -25 8 -9 15 -25 15 -36 0 -11 5 -23
12 -27 7 -5 8 -2 3 7 -5 8 -4 11 1 6 5 -5 9 -16 9 -25 0 -9 6 -16 14 -14 8 2
11 -3 8 -12 -3 -8 1 -20 8 -26 8 -7 12 -16 9 -21 -3 -5 -1 -9 5 -9 6 0 7 -7 4
-17 -4 -10 -2 -14 4 -10 6 4 17 -1 24 -10 12 -14 12 -16 -1 -9 -12 6 -11 5 1
-6 9 -7 15 -23 14 -35 -1 -12 3 -21 9 -20 5 1 22 -20 36 -48 14 -27 28 -51 33
-53 4 -2 7 -8 7 -14 0 -6 8 -17 18 -25 10 -8 11 -11 2 -7 -13 7 -13 5 -1 -9 7
-9 10 -17 5 -17 -5 -1 0 -9 11 -18 11 -10 29 -29 40 -42 16 -19 16 -22 2 -11
-15 12 -17 12 -11 -3 3 -9 10 -16 16 -16 5 0 6 -4 3 -10 -3 -5 1 -10 9 -10 10
0 13 -6 9 -17 -4 -9 -2 -14 3 -11 5 3 17 -10 27 -29 11 -22 13 -32 5 -28 -7 4
-4 -1 6 -9 11 -9 17 -16 13 -16 -4 0 2 -9 13 -20 11 -11 17 -26 14 -33 -3 -10
3 -14 23 -13 15 1 37 -2 47 -7 16 -8 18 -6 12 9 -5 17 -4 17 6 3 9 -10 21 -13
38 -9 32 8 61 1 54 -14 -3 -6 2 -2 10 8 12 15 16 16 16 5 0 -10 2 -11 8 -2 10
15 54 5 46 -11 -3 -6 2 -2 10 8 12 15 16 16 16 5 0 -10 2 -11 8 -2 10 15 54 5
46 -11 -3 -6 2 -2 10 8 12 15 16 16 16 5 0 -12 2 -12 9 0 5 8 16 11 24 8 18
-7 29 43 15 67 -6 10 -5 16 2 16 8 0 8 6 0 20 -8 14 -8 20 0 20 6 0 8 5 5 10
-4 6 -11 8 -16 5 -5 -4 -9 1 -9 9 0 12 -6 13 -30 6 -21 -6 -30 -5 -30 3 0 8
-3 8 -8 2 -8 -12 -53 -15 -46 -3 3 4 0 8 -5 8 -6 0 -11 -6 -11 -12 0 -9 -4 -8
-10 2 -6 10 -10 11 -10 3 0 -7 -5 -13 -11 -13 -5 0 -8 4 -5 8 2 4 -4 8 -15 8
-10 0 -19 -4 -19 -9 0 -5 -7 -4 -15 3 -12 10 -15 10 -15 -1 0 -11 -2 -11 -10
1 -6 9 -10 11 -10 3 0 -15 -29 -6 -50 16 -23 24 -49 84 -43 96 4 5 3 7 -2 3
-12 -12 -35 12 -35 36 0 12 -9 27 -20 34 -11 7 -20 21 -20 33 0 11 -4 17 -10
14 -9 -6 -15 25 -10 50 1 5 -1 7 -5 3 -9 -8 -35 16 -35 32 0 6 5 8 12 4 7 -4
8 -3 4 4 -4 7 -14 12 -23 12 -10 0 -14 6 -10 20 3 11 1 18 -3 15 -5 -3 -11 4
-15 15 -3 11 -11 20 -17 20 -5 0 -7 7 -4 16 4 11 2 15 -8 11 -10 -4 -13 -1
-10 7 3 8 -6 25 -20 39 -15 15 -22 29 -16 32 14 9 12 25 -2 22 -7 -1 -12 4
-11 11 2 6 -4 12 -12 12 -9 0 -12 6 -8 17 4 11 3 14 -5 9 -8 -5 -12 0 -12 13
0 12 -5 21 -11 21 -6 0 -9 6 -6 13 3 7 -6 24 -19 36 -24 23 -27 48 -7 44 5 -1
10 4 10 12 0 8 -5 11 -11 8 -6 -4 -5 1 3 10 7 9 17 14 22 11 5 -3 6 2 3 10 -3
9 -1 16 5 16 6 0 8 7 4 17 -4 11 -3 14 5 9 7 -4 12 -1 12 8 0 8 11 28 25 44
14 17 24 36 23 44 -2 7 3 12 11 10 12 -3 12 0 1 12 -10 13 -10 16 3 16 9 0 19
5 23 12 5 7 2 9 -7 4 -8 -4 -7 -2 2 6 9 7 15 21 13 31 -1 11 0 16 3 13 10 -10
35 33 27 46 -4 6 -3 8 3 5 6 -4 19 11 29 33 10 22 23 40 27 40 5 0 6 4 2 9 -3
6 1 13 9 18 14 8 16 12 16 34 0 5 6 7 13 3 8 -5 8 -2 -2 9 -12 15 -11 17 2 17
9 0 19 5 23 12 5 7 3 8 -7 3 -11 -7 -12 -6 -2 7 7 8 9 19 5 23 -4 5 -1 5 6 1
6 -4 12 -2 12 4 0 6 6 8 13 4 6 -4 9 -4 5 1 -4 4 -2 15 5 23 10 13 9 15 -3 8
-9 -4 -8 -2 2 7 10 8 15 17 11 20 -3 4 1 9 10 13 9 3 14 11 11 19 -3 7 2 15
11 19 9 3 13 11 9 17 -4 7 -3 9 4 5 6 -3 14 -2 17 4 5 8 11 7 21 -1 11 -9 14
-9 14 0 0 8 6 7 16 -3 20 -21 25 -20 17 2 -6 15 -5 15 10 3 14 -11 17 -11 17
0 0 11 2 11 10 -1 8 -12 11 -13 19 -1 7 11 9 11 14 0 5 -12 7 -12 15 0 8 11
10 11 15 0 5 -12 7 -12 15 0 8 11 10 11 15 0 5 -12 7 -12 15 0 8 11 10 11 15
0 5 -12 7 -12 15 0 8 11 10 11 15 0 5 -12 7 -12 15 0 8 11 10 11 15 0 4 -12 7
-11 16 1 7 10 11 11 11 3 0 -14 26 -13 49 1 9 6 12 5 7 -2 -4 -7 1 -10 14 -9
11 1 20 6 20 12 0 5 4 4 9 -4 8 -13 12 -13 27 0 10 8 15 9 11 2 -5 -8 0 -11
13 -10 11 1 20 6 20 12 0 5 4 4 9 -4 8 -13 12 -13 27 0 10 8 15 9 11 2 -5 -8
0 -11 13 -10 11 1 20 6 20 12 0 5 4 4 9 -4 8 -13 12 -13 27 0 10 8 15 9 11 2
-5 -8 0 -11 13 -10 11 1 20 6 20 12 0 5 4 4 9 -4 8 -13 12 -13 27 0 10 8 15 9
11 2 -5 -8 0 -11 13 -10 11 1 20 6 20 12 0 5 4 4 9 -3 4 -8 11 -13 15 -13 29
4 56 -1 51 -9 -3 -5 -1 -10 4 -10 6 0 11 -8 11 -19 0 -10 7 -24 15 -31 9 -7
14 -19 11 -27 -3 -8 -1 -11 4 -8 6 3 10 0 10 -8 0 -8 7 -18 16 -21 8 -3 12
-10 9 -16 -3 -5 -1 -10 5 -10 6 0 9 -4 5 -9 -3 -5 2 -16 10 -24 8 -9 15 -20
15 -26 0 -5 6 -14 13 -18 7 -4 13 -16 14 -25 1 -35 3 -38 19 -38 10 0 14 -6
11 -15 -4 -8 -1 -17 5 -21 7 -4 8 -3 4 4 -4 7 -5 12 -2 12 3 0 10 -10 17 -21
9 -17 8 -20 -3 -14 -7 3 -5 0 5 -8 19 -16 24 -32 5 -21 -7 4 -8 3 -4 -4 4 -7
13 -12 19 -12 7 0 17 -11 24 -25 8 -19 8 -24 0 -19 -7 3 -4 -1 7 -10 10 -8 15
-19 11 -25 -3 -6 -1 -11 4 -11 6 0 11 -7 11 -15 0 -8 7 -15 17 -15 9 0 13 -3
10 -7 -4 -3 0 -17 8 -30 9 -13 13 -28 10 -33 -3 -6 1 -10 10 -10 9 0 13 -4 10
-10 -3 -5 -1 -10 5 -10 6 0 8 -4 5 -10 -3 -5 2 -10 12 -11 11 0 13 -3 5 -6
-10 -4 -9 -9 5 -20 10 -8 12 -12 6 -8 -9 4 -11 1 -7 -9 3 -9 11 -16 18 -16 6
0 4 -6 -5 -13 -17 -13 -19 -18 -19 -42 0 -8 -7 -15 -16 -15 -8 0 -12 -5 -9
-10 3 -6 -1 -13 -9 -16 -9 -3 -16 -15 -16 -25 0 -10 -5 -19 -11 -19 -6 0 -9
-7 -5 -15 3 -8 1 -15 -5 -15 -6 0 -8 -4 -5 -9 3 -4 -6 -19 -19 -31 -14 -13
-25 -32 -25 -42 0 -10 -5 -18 -11 -18 -5 0 -15 -13 -20 -30 -6 -16 -15 -30
-19 -30 -4 0 -11 -7 -14 -16 -5 -12 -3 -14 7 -8 7 5 5 2 -5 -7 -9 -9 -14 -19
-11 -23 4 -3 1 -6 -6 -6 -7 0 -9 -5 -6 -10 3 -6 0 -13 -9 -16 -9 -3 -12 -12
-9 -21 4 -11 2 -14 -5 -9 -7 4 -12 1 -12 -8 0 -8 -10 -25 -22 -37 -13 -12 -17
-19 -10 -15 6 4 12 3 12 -2 0 -6 -7 -13 -16 -16 -9 -4 -14 -13 -10 -21 3 -8 1
-15 -4 -15 -5 0 -12 -9 -15 -21 -4 -11 -12 -18 -19 -16 -9 4 -11 -2 -8 -19 2
-14 0 -24 -7 -24 -6 0 -11 -9 -11 -19 0 -11 -5 -23 -12 -27 -7 -5 -9 -2 -4 7
4 8 0 5 -9 -6 -15 -18 -79 -30 -68 -12 2 4 -1 7 -6 7 -6 0 -11 -6 -11 -12 0
-9 -4 -8 -10 2 -6 10 -10 11 -10 3 0 -7 -5 -13 -11 -13 -5 0 -8 4 -5 9 4 6 -5
6 -21 2 -20 -6 -31 -3 -41 8 -10 13 -11 13 -7 1 4 -11 -2 -15 -19 -15 -13 0
-22 3 -19 8 2 4 -1 7 -6 7 -6 0 -11 -6 -11 -12 0 -10 -3 -9 -9 1 -7 11 -9 11
-14 0 -4 -11 -6 -11 -6 -1 -1 10 -6 10 -22 2 -12 -7 -18 -18 -15 -26 3 -8 0
-14 -6 -14 -9 0 -9 -3 0 -12 17 -17 15 -28 -5 -22 -15 5 -15 4 -4 -4 17 -12
24 -42 9 -42 -7 0 -7 -5 1 -13 6 -8 9 -16 6 -19 -3 -2 1 -5 8 -5 6 0 21 -4 31
-9 13 -5 17 -4 12 4 -4 7 2 8 22 2 16 -4 35 -4 43 0 7 5 21 4 31 -1 12 -6 18
-6 18 1 0 5 5 10 11 10 5 0 8 -4 5 -8 -5 -8 98 -6 121 2 6 3 14 0 17 -7 2 -7
5 -7 5 -2 1 6 21 9 45 9 37 -2 44 1 39 14 -4 10 -2 13 5 8 8 -5 10 -2 6 8 -3
9 -1 16 6 16 6 0 8 5 5 10 -3 6 0 10 8 10 19 0 30 27 14 34 -7 2 -5 5 5 5 11
1 16 8 13 20 -3 14 1 18 11 14 8 -3 14 -2 13 3 -4 21 2 35 11 29 6 -3 7 1 4 9
-3 9 -1 16 5 16 6 0 10 3 9 8 -3 14 22 62 32 62 6 0 8 5 5 10 -3 6 1 13 10 16
13 6 14 8 3 15 -10 7 -9 9 5 9 10 0 17 8 17 20 0 11 7 23 15 26 8 4 13 10 10
14 -8 12 6 41 16 34 5 -3 9 4 9 16 0 12 4 19 9 15 5 -3 12 -1 16 5 3 5 1 10
-6 10 -7 0 -3 9 9 20 12 12 22 27 22 35 0 8 5 15 10 15 6 0 10 9 10 21 0 13 4
18 12 13 8 -5 9 0 6 14 -4 12 -2 22 3 22 5 0 9 6 9 14 0 8 7 17 16 20 9 4 14
13 10 22 -3 8 -2 12 3 9 10 -5 25 12 26 30 2 21 17 45 26 39 5 -3 6 2 3 10 -3
9 -1 16 6 16 6 0 9 4 5 9 -3 5 -2 12 3 15 4 2 7 41 7 85 0 62 -5 86 -18 101
-9 11 -17 25 -17 30 0 6 -5 10 -11 10 -5 0 -8 4 -4 9 3 5 0 13 -6 16 -5 4 -8
14 -5 22 3 8 2 11 -3 8 -5 -3 -12 4 -16 15 -3 11 -14 20 -23 20 -15 0 -15 2
-2 10 11 7 11 10 2 10 -7 0 -10 5 -7 10 3 6 1 10 -5 10 -6 0 -8 5 -5 10 3 6 1
10 -4 10 -6 0 -11 7 -11 15 0 9 -6 18 -14 21 -8 3 -13 13 -11 22 1 9 -7 25
-19 35 -11 10 -14 16 -6 12 12 -5 12 -4 -1 7 -9 7 -18 17 -20 23 -2 5 -7 9
-11 8 -3 -1 -5 5 -4 14 2 10 -7 26 -18 36 -12 10 -16 16 -10 13 6 -3 11 2 11
10 0 8 -6 13 -13 10 -14 -6 -27 21 -17 36 3 7 1 8 -5 4 -8 -5 -12 0 -12 13 0
13 -7 21 -16 21 -14 0 -15 2 -3 17 10 11 10 14 2 9 -8 -4 -13 -2 -13 4 0 6 -5
8 -12 4 -7 -5 -8 -3 -4 5 5 7 0 21 -11 33 -12 15 -13 19 -3 14 8 -4 6 0 -4 8
-11 9 -29 39 -41 66 -12 28 -23 48 -26 46 -3 -3 -11 4 -18 16 -10 16 -10 19 1
12 7 -4 2 4 -12 17 -15 15 -28 21 -32 14 -5 -6 -8 -7 -8 0 0 6 -5 3 -10 -5 -6
-9 -10 -11 -10 -3 0 7 -7 10 -17 6 -12 -5 -14 -3 -8 8 6 11 5 12 -6 2 -7 -7
-17 -13 -22 -13 -4 0 -5 6 -1 13 6 10 4 10 -7 0 -7 -7 -17 -13 -22 -13 -4 0
-5 6 -1 13 6 10 4 10 -7 0 -7 -7 -17 -13 -22 -13 -4 0 -5 6 -1 13 6 10 4 10
-7 0 -16 -16 -33 -17 -23 -2 4 7 -1 7 -16 -1 -18 -9 -24 -9 -30 0 -6 9 -9 9
-13 -1 -5 -12 -7 -12 -15 0 -8 11 -10 11 -15 0 -5 -12 -7 -12 -15 0 -8 11 -10
11 -15 0 -4 -12 -7 -11 -16 1 -8 12 -11 12 -11 1 0 -10 -3 -11 -14 -2 -10 8
-16 9 -21 1 -9 -14 -28 -13 -19 3 6 10 4 10 -7 0 -7 -7 -17 -13 -22 -13 -4 0
-5 6 -1 13 6 10 4 10 -7 0 -7 -7 -17 -13 -22 -13 -4 0 -5 6 -1 13 6 10 4 10
-7 0 -7 -7 -17 -13 -22 -13 -4 0 -5 6 -1 13 6 10 4 10 -7 0 -7 -7 -17 -13 -22
-13 -4 0 -5 6 -1 13 6 9 4 9 -7 1 -18 -14 -52 -14 -61 0 -6 8 -8 8 -8 0 0 -6
-11 -11 -25 -11 -15 0 -22 4 -18 11 3 6 0 6 -8 -1 -7 -7 -17 -13 -22 -13 -4 0
-5 6 -1 13 6 10 4 10 -7 0 -7 -7 -17 -13 -22 -13 -4 0 -5 6 -1 13 6 10 4 10
-7 0 -7 -7 -17 -13 -22 -13 -4 0 -5 6 -1 13 6 10 4 10 -7 0 -7 -7 -17 -13 -22
-13 -4 0 -5 6 -1 13 5 7 1 7 -10 -2 -14 -12 -19 -12 -26 -2 -6 11 -9 11 -13 0
-4 -12 -7 -11 -16 1 -9 13 -11 13 -11 1 0 -11 -3 -12 -11 -4 -9 9 -16 9 -29 0
-14 -8 -23 -7 -36 4 -13 10 -16 10 -10 1z"/>
<path d="M2003 1065 c0 -8 4 -12 9 -9 5 3 6 10 3 15 -9 13 -12 11 -12 -6z"/>
</g>
</svg>
